HIERARCHY
ROOT Hips
{
	OFFSET -4.445156 63.760666 -31.951174
	CHANNELS 6 Xposition Yposition Zposition Xrotation Yrotation Zrotation
	JOINT Chest
	{
		OFFSET 0.438396 13.486336 2.020115
		CHANNELS 3 Xrotation Yrotation Zrotation
		JOINT Chest2
		{
			OFFSET 0.061832 17.570694 12.261053
			CHANNELS 3 Xrotation Yrotation Zrotation
			JOINT Chest3
			{
				OFFSET 1.460167 13.233139 6.750698
				CHANNELS 3 Xrotation Yrotation Zrotation
				JOINT Neck
				{
					OFFSET 0.559034 15.621788 7.366368
					CHANNELS 3 Xrotation Yrotation Zrotation
					JOINT Head
					{
						OFFSET -0.480398 9.194641 5.005536
						CHANNELS 3 Xrotation Yrotation Zrotation
						End Site
						{
							OFFSET -0.477765 9.229431 4.941356
						}
					}
				}
				JOINT LeftCollar
				{
					OFFSET 4.933858 10.834518 7.750783
					CHANNELS 3 Xrotation Yrotation Zrotation
					JOINT LeftUpArm
					{
						OFFSET 14.902557 -1.680435 -9.142731
						CHANNELS 3 Xrotation Yrotation Zrotation
						JOINT LeftLowArm
						{
							OFFSET 4.731504 -30.720131 -13.176326
							CHANNELS 3 Xrotation Yrotation Zrotation
							JOINT LeftHand
							{
								OFFSET 0.619072 -29.637348 -4.710871
								CHANNELS 3 Xrotation Yrotation Zrotation
								End Site
								{
									OFFSET 0.135309 -6.477413 -1.029598
								}
							}
						}
					}
				}
				JOINT RightCollar
				{
					OFFSET -3.424399 10.673531 8.726851
					CHANNELS 3 Xrotation Yrotation Zrotation
					JOINT RightUpArm
					{
						OFFSET -15.852509 -4.150513 -6.321989
						CHANNELS 3 Xrotation Yrotation Zrotation
						JOINT RightLowArm
						{
							OFFSET -5.700542 -32.603745 -6.650889
							CHANNELS 3 Xrotation Yrotation Zrotation
							JOINT RightHand
							{
								OFFSET -4.719746 -29.633686 -0.723785
								CHANNELS 3 Xrotation Yrotation Zrotation
								End Site
								{
									OFFSET -1.031548 -6.476734 -0.158192
								}
							}
						}
					}
				}
			}
		}
	}
	JOINT LeftUpLeg
	{
		OFFSET 9.919529 -0.520859 1.323174
		CHANNELS 3 Xrotation Yrotation Zrotation
		JOINT LeftLowLeg
		{
			OFFSET -0.814194 -14.432930 45.111156
			CHANNELS 3 Xrotation Yrotation Zrotation
			JOINT LeftFoot
			{
				OFFSET 2.443799 -30.065237 -33.025429
				CHANNELS 3 Xrotation Yrotation Zrotation
				JOINT LeftToe
				{
					OFFSET 6.001766 -22.821201 1.652689
					CHANNELS 3 Xrotation Yrotation Zrotation
					End Site
					{
						OFFSET 3.620316 -16.821163 16.232706
					}
				}
			}
		}
	}
	JOINT RightUpLeg
	{
		OFFSET -9.919539 0.520660 -1.323202
		CHANNELS 3 Xrotation Yrotation Zrotation
		JOINT RightLowLeg
		{
			OFFSET -14.146209 -44.928677 5.031046
			CHANNELS 3 Xrotation Yrotation Zrotation
			JOINT RightFoot
			{
				OFFSET 19.410395 7.268015 -39.635757
				CHANNELS 3 Xrotation Yrotation Zrotation
				JOINT RightToe
				{
					OFFSET 14.360281 -16.348166 -9.277756
					CHANNELS 3 Xrotation Yrotation Zrotation
					End Site
					{
						OFFSET 7.592446 -22.045511 3.988266
					}
				}
			}
		}
	}
}
MOTION
Frames: 11
Frame Time: 0.033333
9.373816 42.065826 -28.979616 -16.894359 -12.999937 -4.173666 -11.849796 7.391648 -10.682761 0.560647 -2.000234 1.180630 3.983256 -11.128777 -7.107614 17.576522 4.408245 -3.740549 -0.000002 -0.000001 -0.000000 2.048111 -9.960665 21.974810 3.909986 -32.183254 48.943889 -104.648716 -37.907570 8.236862 -0.000001 0.000000 0.000001 -3.735742 7.918965 -18.016036 -20.987652 22.858627 -12.681693 -117.512776 6.790791 15.244615 0.000000 0.000003 -0.000001 24.210311 50.656030 50.288900 -53.565841 -7.282534 47.923326 -6.855886 -27.437719 -53.083206 -0.000007 0.000001 0.000001 -26.964958 13.960347 -26.570860 27.814282 -26.526754 57.579444 16.238860 -14.477617 -34.201182 -0.000001 0.000008 -0.000003 
9.406565 42.023697 -29.131636 -16.832887 -12.881088 -4.065739 -11.259177 7.330033 -10.873557 0.042158 -1.754975 1.106043 4.429886 -10.888548 -6.761009 17.209913 4.793288 -3.730021 -0.000000 -0.000000 -0.000001 2.072043 -9.366854 21.429696 4.417187 -32.342015 49.216680 -104.734558 -36.169820 7.359475 0.000001 -0.000001 -0.000001 -3.421913 8.052061 -18.049200 -21.158271 22.826683 -11.351491 -116.035816 3.688151 16.453441 -0.000000 0.000001 -0.000000 24.243540 50.534346 50.320486 -53.809876 -7.399301 47.620772 -6.909472 -27.598177 -53.331357 0.000002 -0.000001 -0.000003 -26.700717 14.061678 -26.943916 27.658013 -28.034404 58.959907 16.298635 -14.632116 -33.984265 -0.000001 0.000001 -0.000000 
9.429764 41.976547 -29.283907 -17.456425 -12.339669 -4.051388 -10.400675 7.166253 -10.941260 0.168067 -1.783081 1.143202 4.404418 -10.869112 -6.916863 16.775788 4.980914 -3.719911 -0.000000 -0.000001 0.000004 2.204688 -8.548483 21.131840 4.882137 -32.998399 49.536551 -104.135967 -36.445715 7.411475 -0.000002 0.000004 -0.000001 -2.952931 8.080170 -17.972958 -20.951008 23.006143 -10.700368 -115.727447 2.930679 16.993174 0.000004 0.000001 -0.000002 24.336183 50.180830 49.890256 -54.421984 -7.938211 48.381331 -7.223408 -27.669993 -54.214681 0.000000 0.000000 0.000001 -26.197817 13.923807 -27.218263 27.754265 -27.882596 58.963971 17.016107 -14.830839 -32.967336 -0.000001 0.000004 -0.000003 
9.448882 41.932030 -29.438358 -17.304136 -12.101313 -3.803101 -9.141880 7.048355 -11.322890 -0.876260 -1.710986 1.163482 5.017130 -10.655428 -6.727590 16.297017 5.236743 -3.566677 -0.000002 0.000003 0.000002 2.758621 -8.331257 20.751015 5.796732 -33.630485 50.069750 -102.601708 -38.897640 8.752524 -0.000000 0.000005 0.000002 -2.547917 7.694911 -18.186885 -21.223595 23.759476 -9.504463 -114.975279 2.934419 17.164392 -0.000003 -0.000002 0.000001 24.665848 50.115099 49.685781 -54.827646 -7.982476 48.106880 -7.287529 -27.794958 -54.310874 0.000002 0.000001 0.000001 -26.130531 14.107567 -27.694703 27.742512 -27.831826 58.823351 17.132454 -14.833112 -33.090631 -0.000003 0.000004 0.000002 
9.454052 41.881275 -29.592054 -17.283997 -12.235886 -3.774033 -9.240949 7.036790 -11.351833 -0.054248 -1.396121 1.019406 4.474498 -10.427811 -6.582940 16.200449 5.306455 -3.479204 0.000002 0.000001 -0.000001 3.159711 -8.168009 20.291886 6.580362 -34.005125 50.577448 -101.210904 -40.202005 9.481599 -0.000001 0.000003 0.000003 -2.356720 6.995099 -18.358503 -21.179723 23.828290 -8.504380 -114.578793 1.699301 18.069363 -0.000001 0.000003 -0.000000 24.213885 49.916279 49.780191 -54.545392 -7.965003 48.297132 -7.445767 -27.390238 -54.461190 0.000002 0.000002 0.000000 -26.376690 14.204319 -27.631050 27.907946 -28.064718 59.192878 17.372549 -15.113631 -33.927196 -0.000002 0.000006 -0.000003 
9.461467 41.840179 -29.739605 -17.368404 -12.119062 -3.652858 -8.537616 6.953638 -11.483046 -0.684660 -1.344679 1.013598 4.756422 -10.612478 -6.823275 16.146557 5.506163 -3.513070 -0.000004 0.000000 -0.000001 3.369751 -8.296735 19.601193 7.655478 -33.921376 51.581001 -100.347589 -41.279088 10.056107 -0.000000 0.000004 0.000001 -2.065383 7.246332 -18.281881 -20.854208 23.796705 -8.217888 -114.418735 1.865863 18.220124 -0.000004 -0.000002 -0.000001 24.205644 49.717247 49.568028 -54.818064 -8.122896 48.515988 -7.661198 -27.251389 -54.849943 -0.000002 0.000000 0.000002 -26.376574 14.270143 -27.785865 27.943682 -27.929946 59.091327 17.257258 -15.209380 -34.581173 -0.000001 0.000001 0.000002 
9.454344 41.793007 -29.892626 -16.959223 -12.067956 -3.540581 -8.664722 6.948821 -11.469914 -0.384343 -1.224960 0.954730 4.786796 -10.764288 -7.006758 15.560382 5.550900 -3.510427 -0.000002 -0.000001 0.000001 3.333326 -8.027100 19.135998 8.230157 -34.238468 52.426736 -100.506568 -41.773505 10.030887 -0.000001 0.000002 0.000003 -1.958918 7.194560 -18.277342 -20.717191 23.558313 -7.772989 -114.444136 1.256963 18.653433 -0.000003 0.000003 -0.000002 23.869691 49.586046 49.710195 -54.704850 -7.937483 48.496481 -7.782851 -27.135121 -54.902099 0.000000 0.000003 0.000002 -26.813291 14.487717 -27.776525 27.985211 -28.912040 60.051959 17.957465 -15.312797 -33.621162 -0.000001 0.000003 -0.000002 
9.439331 41.755592 -30.031231 -17.524327 -11.825904 -3.532281 -7.431558 6.809650 -11.741204 -1.847212 -1.404879 1.059561 5.329892 -11.392074 -7.511147 16.128964 6.345200 -3.983816 0.000003 -0.000002 -0.000001 3.326601 -7.359252 18.811492 8.854901 -34.085441 52.919841 -100.138107 -40.503360 9.455342 0.000000 -0.000002 0.000002 -1.637569 7.602900 -18.165988 -20.045487 23.217328 -7.548837 -114.319246 -0.115561 19.411112 -0.000004 0.000003 -0.000001 23.987380 49.237522 49.285679 -54.855916 -8.185554 49.210441 -8.090912 -26.998331 -55.508022 -0.000005 -0.000001 -0.000005 -26.672995 14.410926 -27.704528 28.029001 -29.944437 61.085947 18.523685 -15.286069 -32.389877 -0.000003 0.000008 0.000000 
9.424685 41.729862 -30.163605 -17.729356 -11.881081 -3.374662 -7.039034 6.828837 -11.992678 -2.375639 -1.419920 1.058614 5.538935 -12.079371 -7.911860 16.248381 7.111330 -4.463018 0.000002 0.000003 -0.000000 3.173082 -6.729496 18.649618 9.252695 -33.625168 53.245276 -100.057046 -39.473039 9.035679 0.000003 0.000003 0.000002 -1.403199 8.229020 -17.893555 -19.631794 22.857745 -7.491096 -114.189602 -1.324296 19.993880 -0.000000 -0.000002 0.000002 24.289860 49.154898 48.993521 -54.711472 -8.092592 49.391878 -8.353770 -26.882489 -55.913756 -0.000003 -0.000001 -0.000000 -26.843784 14.477599 -27.685036 28.172579 -30.187278 61.417771 18.527009 -15.252079 -32.578711 0.000001 0.000000 -0.000003 
9.407866 41.695168 -30.303814 -17.146546 -12.057051 -3.278940 -8.232877 6.978422 -11.820517 -0.330984 -0.857539 0.790171 4.520170 -11.704870 -7.391616 16.233044 6.771832 -4.133302 -0.000004 0.000003 0.000001 3.747516 -7.568049 18.283720 9.550162 -33.931355 53.301297 -99.119371 -41.022499 9.927449 -0.000003 0.000004 -0.000001 -1.167854 8.084697 -18.234655 -19.197865 22.910152 -7.555342 -114.678603 -0.487361 19.861370 -0.000001 0.000003 -0.000001 23.635482 49.064336 49.344196 -54.729203 -7.981663 48.917391 -8.053547 -27.655917 -55.596142 -0.000003 0.000000 -0.000002 -27.627179 14.775494 -27.459550 28.107847 -30.200607 61.382849 18.022894 -14.899458 -32.226533 0.000000 0.000006 -0.000001 
9.391516 41.649963 -30.449997 -17.747811 -12.110883 -3.215397 -7.935572 7.016076 -12.021568 0.018347 -0.714934 0.685807 4.072955 -11.586682 -7.221527 16.698144 6.676988 -4.308173 -0.000002 0.000000 -0.000000 3.960534 -7.768118 17.542552 10.228547 -33.847679 53.835070 -99.440280 -41.053965 9.513676 0.000002 0.000002 0.000000 -1.157801 7.281288 -18.260752 -18.872970 23.160418 -7.673027 -114.601886 -1.714071 20.746035 0.000002 0.000005 -0.000001 24.465000 49.310780 48.814638 -55.378528 -8.157998 49.162530 -8.245421 -28.008610 -56.087953 0.000000 -0.000002 -0.000002 -27.493395 14.598872 -27.393949 28.191877 -30.781084 61.942849 17.885387 -14.482281 -31.885676 0.000004 -0.000001 -0.000002 
